# xmcd
#
# Track frame offsets:
# 150
# 3347
# 35397
# 68066
# 70538
# 109854
# 130864
# 142487
# 172489
# 200005
# 221132
# 261355
# 273176
# 296423
# 301493
# 324975
# 341953
#
# Disc length: 4904 seconds
#
# Revision: 0
# Processed by: cddbd v1.4PL0 Copyright (c) Steve Scherf et al.
# Submitted via: Axialis_AX_CDPlayer 2.6
#
DISCID=16132611
DTITLE=Lauryn Hill - Lauryn Hill - Mtv Unplugged
DYEAR=1900
DGENRE=
TTITLE0=Intro
TTITLE1=Mr. intentional
TTITLE2=Adam lived in theory
TTITLE3=Oh jerusalem intro
TTITLE4=Oh jerusalem
TTITLE5=War in the mind
TTITLE6=Rebel intro
TTITLE7=I find it hard to say (rebel)
TTITLE8=Water
TTITLE9=I just want you around
TTITLE10=Peace of mind
TTITLE11=Mystery intro
TTITLE12=The mystery of iniquity
TTITLE13=I get out intro
TTITLE14=I get out
TTITLE15=I remember
TTITLE16=So much things to say
EXTD=
EXTT0=
EXTT1=
EXTT2=
EXTT3=
EXTT4=
EXTT5=
EXTT6=
EXTT7=
EXTT8=
EXTT9=
EXTT10=
EXTT11=
EXTT12=
EXTT13=
EXTT14=
EXTT15=
EXTT16=
PLAYORDER=
